<?xml version="1.0" encoding="utf-8"?>
<!-- Generator: Adobe Illustrator 18.0.0, SVG Export Plug-In . SVG Version: 6.00 Build 0)  -->
<!DOCTYPE svg PUBLIC "-//W3C//DTD SVG 1.1//EN" "http://www.w3.org/Graphics/SVG/1.1/DTD/svg11.dtd">
<svg version="1.1" id="Layer_1" xmlns="http://www.w3.org/2000/svg" xmlns:xlink="http://www.w3.org/1999/xlink" x="0px" y="0px"
	 viewBox="0 0 50 50" enable-background="new 0 0 50 50" xml:space="preserve">
<path fill="#E1B03D" d="M44.5,29.9H5.5c-2.5,0-4.5-2-4.5-4.5v0c0-2.5,2-4.5,4.5-4.5h39.1c2.5,0,4.5,2,4.5,4.5v0
	C49,27.9,47,29.9,44.5,29.9z"/>
<path fill="#E1B03D" d="M44.5,44.8H5.5c-2.5,0-4.5-2-4.5-4.5v0c0-2.5,2-4.5,4.5-4.5h39.1c2.5,0,4.5,2,4.5,4.5v0
	C49,42.8,47,44.8,44.5,44.8z"/>
<path fill="#E1B03D" d="M44.5,15H5.5C3,15,1,13,1,10.5v0C1,8,3,6,5.5,6h39.1C47,6,49,8,49,10.5v0C49,13,47,15,44.5,15z"/>
</svg>
