<?xml version="1.0" encoding="utf-8"?>
<!-- Generator: Adobe Illustrator 18.0.0, SVG Export Plug-In . SVG Version: 6.00 Build 0)  -->
<!DOCTYPE svg PUBLIC "-//W3C//DTD SVG 1.1//EN" "http://www.w3.org/Graphics/SVG/1.1/DTD/svg11.dtd">
<svg version="1.1" id="Layer_1" xmlns="http://www.w3.org/2000/svg" xmlns:xlink="http://www.w3.org/1999/xlink" x="0px" y="0px"
	 viewBox="0 0 50 50" enable-background="new 0 0 50 50" xml:space="preserve">
<path fill="#AFE3C0" d="M32.9,3.8c-6.2,0-11.2,5-11.2,11.2c0,2.1,0.6,4,1.5,5.6L5.7,38.2c-0.6,0.6-0.6,1.7,0,2.3l1.9,1.9
	c0.1,0.1,0.2,0.2,0.4,0.3l5.7,5.7c0.4,0.4,1,0.4,1.3,0l2.4-2.4c0.4-0.4,0.4-1,0-1.3l-4.9-4.9l2.8-2.8l4.8,4.8c0.4,0.4,1,0.4,1.3,0
	l2.4-2.4c0.4-0.4,0.4-1,0-1.3L19,33.2l8.4-8.4c1.6,0.9,3.5,1.5,5.5,1.5c6.2,0,11.2-5,11.2-11.2S39.1,3.8,32.9,3.8z M32.9,20.4
	c-3,0-5.4-2.4-5.4-5.4s2.4-5.4,5.4-5.4s5.4,2.4,5.4,5.4S35.9,20.4,32.9,20.4z"/>
</svg>
