<?xml version="1.0" encoding="utf-8"?>
<!-- Generator: Adobe Illustrator 18.0.0, SVG Export Plug-In . SVG Version: 6.00 Build 0)  -->
<!DOCTYPE svg PUBLIC "-//W3C//DTD SVG 1.1//EN" "http://www.w3.org/Graphics/SVG/1.1/DTD/svg11.dtd">
<svg version="1.1" id="Layer_1" xmlns="http://www.w3.org/2000/svg" xmlns:xlink="http://www.w3.org/1999/xlink" x="0px" y="0px"
	 viewBox="0 0 50 50" enable-background="new 0 0 50 50" xml:space="preserve">
<path fill="#629677" d="M44.6,29.1H5.4c-2.3,0-4.1-1.9-4.1-4.1v0c0-2.3,1.9-4.1,4.1-4.1h39.2c2.3,0,4.1,1.9,4.1,4.1v0
	C48.7,27.3,46.9,29.1,44.6,29.1z"/>
<path fill="#629677" d="M29.1,5.4v39.2c0,2.3-1.9,4.1-4.1,4.1h0c-2.3,0-4.1-1.9-4.1-4.1V5.4c0-2.3,1.9-4.1,4.1-4.1h0
	C27.3,1.3,29.1,3.1,29.1,5.4z"/>
</svg>
